<?xml version="1.0" standalone="no"?><!DOCTYPE svg PUBLIC "-//W3C//DTD SVG 1.1//EN" "http://www.w3.org/Graphics/SVG/1.1/DTD/svg11.dtd"><svg t="1608865603441" class="icon" viewBox="0 0 1024 1024" version="1.1" xmlns="http://www.w3.org/2000/svg" p-id="8893" xmlns:xlink="http://www.w3.org/1999/xlink" width="200" height="200"><defs><style type="text/css"></style></defs><path d="M373.028571 972.8c164.571429 51.2 343.771429 7.314286 468.114286-109.714286s179.2-292.571429 138.971429-460.8-164.571429-303.542857-329.142857-351.085714C486.4 0 307.2 43.885714 182.857143 160.914286S3.657143 453.485714 43.885714 621.714286s164.571429 299.885714 329.142857 351.085714z" fill="#FFFFFF" p-id="8894"></path><path d="M21.942857 508.342857c0 281.6 219.428571 508.342857 490.057143 508.342857s490.057143-226.742857 490.057143-508.342857S786.285714 0 515.657143 0 21.942857 226.742857 21.942857 508.342857" fill="#1370B3" p-id="8895"></path><path d="M21.942857 548.571429c0 256 219.428571 464.457143 490.057143 464.457142S1005.714286 804.571429 1005.714286 548.571429s-219.428571-464.457143-490.057143-464.457143S21.942857 288.914286 21.942857 548.571429z" fill="#1678BC" p-id="8896"></path><path d="M753.371429 120.685714l-80.457143-29.257143 98.742857 87.771429-36.571429-3.657143-3.657143 14.628572c-18.285714-14.628571-43.885714-21.942857-69.485714-21.942858-10.971429 3.657143-21.942857 10.971429-25.6 25.6l7.314286 25.6 76.8 7.314286c7.314286 10.971429 18.285714 7.314286 18.285714 25.6h29.257143l18.285714-7.314286c21.942857 32.914286 40.228571 65.828571 47.542857 106.057143l-21.942857 14.628572-7.314285 18.285714v69.485714s-14.628571 14.628571-14.628572 10.971429 0-58.514286-7.314286-62.171429c-7.314286-3.657143-18.285714-7.314286-25.6 0-7.314286-14.628571-18.285714-29.257143-36.571428-36.571428-3.657143-10.971429-10.971429-18.285714-14.628572-29.257143-3.657143 0-10.971429 3.657143-10.971428 10.971428 0-10.971429 0-18.285714-3.657143-29.257142l-36.571429-7.314286h-25.6c-10.971429 3.657143-18.285714 10.971429-18.285714 21.942857l-14.628571 10.971429-7.314286 29.257142c-3.657143 7.314286 25.6 21.942857 36.571429 18.285715 10.971429-3.657143 32.914286 29.257143 32.914285 29.257143l-7.314285 21.942857s-7.314286 14.628571-10.971429 10.971428l-21.942857-32.914285c-14.628571-7.314286-29.257143-7.314286-43.885714 0-3.657143 32.914286-3.657143 69.485714 0 84.114285 3.657143 14.628571 10.971429 21.942857 18.285714 21.942857l32.914286-21.942857s25.6 65.828571 25.6 69.485715c0 3.657143 36.571429 29.257143 36.571428 29.257142s10.971429 3.657143 10.971429-3.657142-3.657143-21.942857 0-25.6 7.314286 3.657143 10.971428 14.628571c3.657143 18.285714 3.657143 36.571429 0 54.857143s-25.6 40.228571-25.6 40.228571-7.314286 25.6-3.657143 25.6 14.628571 32.914286 18.285715 43.885715 76.8 237.714286 223.085714 47.542857c87.771429-117.028571 109.714286-277.942857 58.514286-409.6-29.257143-84.114286-102.4-128-153.6-234.057143l-73.142857-36.571429z" fill="#10549A" p-id="8897"></path><path d="M128 98.742857c0 36.571429 14.628571 69.485714 51.2 102.4 40.228571-10.971429 80.457143-10.971429 120.685714 0 43.885714-47.542857 87.771429-62.171429 135.314286-62.171428-32.914286 25.6-58.514286 62.171429-69.485714 102.4 3.657143 18.285714 18.285714 32.914286 32.914285 40.228571 32.914286 3.657143 69.485714 0 106.057143 10.971429l-3.657143 29.257142c-21.942857 43.885714-69.485714 54.857143-106.057142 91.428572 3.657143 21.942857 3.657143 43.885714-3.657143 65.828571-10.971429-10.971429-29.257143-18.285714-43.885715-14.628571h-3.657142c-47.542857 47.542857-7.314286 87.771429 65.828571 124.342857 18.285714 3.657143 40.228571 3.657143 58.514286-3.657143 40.228571-21.942857 135.314286-43.885714 153.6 32.914286-10.971429 10.971429-21.942857 14.628571-36.571429 10.971428-3.657143 3.657143-14.628571 7.314286-18.285714 10.971429-58.514286 47.542857-117.028571 62.171429-182.857143 51.2 14.628571 18.285714 29.257143 29.257143 47.542857 40.228571 40.228571 3.657143 58.514286 7.314286 62.171429 14.628572h-36.571429c65.828571 29.257143 128 32.914286 190.171429 0 0 7.314286-3.657143 14.628571-10.971429 21.942857 21.942857-18.285714 40.228571-40.228571 62.171429-54.857143l3.657143 21.942857c36.571429-7.314286 65.828571-65.828571 84.114285-179.2l14.628572 40.228572c14.628571-62.171429 14.628571-135.314286 7.314285-215.771429 18.285714 21.942857 36.571429 43.885714 43.885715 73.142857 3.657143-113.371429-29.257143-215.771429-106.057143-277.942857 18.285714-3.657143 43.885714 7.314286 95.085714 47.542857-29.257143-58.514286-76.8-109.714286-146.285714-160.914285 95.085714 29.257143 179.2 84.114286 245.028571 197.485714 0-21.942857-54.857143-98.742857-102.4-142.628572l3.657143-14.628571 58.514286 54.857143 3.657143-10.971429c76.8 91.428571 95.085714 171.885714 95.085714 252.342857 0 51.2-10.971429 102.4-29.257143 153.6 32.914286-21.942857 47.542857-47.542857 32.914286-124.342857l10.971428-47.542857c21.942857 87.771429 10.971429 179.2-21.942857 259.657143-18.285714 54.857143-65.828571 109.714286-102.4 160.914286l43.885715-29.257143 47.542857-95.085714c3.657143 32.914286 0 65.828571-14.628572 95.085714-32.914286 51.2-80.457143 95.085714-135.314285 124.342857 0 14.628571-7.314286 29.257143-29.257143 43.885714-65.828571 51.2-157.257143 73.142857-270.628572 65.828572l18.285715 18.285714c-43.885714 0-91.428571-7.314286-131.657143-21.942857l25.6 18.285714C186.514286 958.171429 25.6 789.942857 21.942857 563.2L0 607.085714c0-47.542857 18.285714-91.428571 25.6-135.314285l3.657143-36.571429L10.971429 475.428571C18.285714 416.914286 29.257143 358.4 73.142857 288.914286c-3.657143-69.485714 14.628571-135.314286 54.857143-190.171429z" fill="#E36724" p-id="8898"></path><path d="M365.714286 241.371429c-14.628571 65.828571-10.971429 124.342857 29.257143 168.228571 7.314286-7.314286 18.285714-14.628571 25.6-21.942857 21.942857-14.628571 51.2-25.6 80.457142-69.485714l7.314286-25.6c-18.285714-7.314286-62.171429-7.314286-106.057143-10.971429-18.285714-7.314286-32.914286-21.942857-36.571428-40.228571z m-18.285715 223.085714c-95.085714-3.657143-124.342857 58.514286-109.714285 164.571428 3.657143-58.514286 91.428571-124.342857 91.428571-128 0-14.628571 7.314286-25.6 18.285714-36.571428z m252.342858 164.571428c-21.942857-10.971429-51.2-10.971429-91.428572 3.657143-91.428571 21.942857-168.228571 10.971429-230.4-29.257143 10.971429 32.914286 40.228571 65.828571 102.4 87.771429 32.914286 7.314286 69.485714 7.314286 102.4-3.657143 18.285714-7.314286 40.228571-14.628571 54.857143-29.257143 21.942857-18.285714 40.228571-29.257143 62.171429-29.257143zM179.2 204.8L84.114286 281.6c14.628571-40.228571 40.228571-76.8 73.142857-106.057143l21.942857 29.257143z" fill="#D5562C" p-id="8899"></path><path d="M365.714286 362.057143c0-3.657143 21.942857-14.628571 25.6-14.628572s36.571429-7.314286 40.228571-3.657142l10.971429 7.314285c18.285714-7.314286 32.914286-14.628571 47.542857-29.257143v21.942858c-7.314286 14.628571-58.514286 43.885714-84.114286 58.514285l-3.657143 3.657143c-3.657143 3.657143-7.314286 3.657143-10.971428 7.314286-7.314286-18.285714-18.285714-32.914286-25.6-51.2z" fill="#F0B991" p-id="8900"></path><path d="M468.114286 285.257143l18.285714 7.314286 3.657143 25.6v21.942857l10.971428-21.942857c3.657143-7.314286 3.657143-18.285714 0-25.6-3.657143-3.657143-7.314286-7.314286-14.628571-7.314286h-18.285714z" fill="#7E3430" p-id="8901"></path><path d="M226.742857 193.828571c25.6-3.657143 51.2 0 73.142857 7.314286 40.228571-47.542857 87.771429-62.171429 135.314286-62.171428-32.914286 25.6-54.857143 62.171429-69.485714 102.4-10.971429 40.228571-10.971429 80.457143 0 120.685714 7.314286 18.285714 18.285714 36.571429 29.257143 51.2 3.657143 21.942857 3.657143 43.885714-3.657143 65.828571-10.971429-10.971429-29.257143-18.285714-43.885715-14.628571-95.085714-3.657143-124.342857 54.857143-109.714285 164.571428-36.571429-98.742857-7.314286-171.885714 95.085714-219.428571-36.571429-54.857143-21.942857-131.657143-7.314286-182.857143-21.942857-18.285714-58.514286-25.6-98.742857-32.914286z m398.628572 424.228572c-14.628571-51.2-58.514286-65.828571-128-43.885714-32.914286 18.285714-76.8 25.6-98.742858 7.314285-18.285714-10.971429-36.571429-21.942857-51.2-40.228571l-3.657142-3.657143-7.314286 18.285714c0 40.228571 58.514286 73.142857 135.314286 58.514286 65.828571-14.628571 117.028571-10.971429 153.6 3.657143z" fill="#FF9D00" p-id="8902"></path><path d="M757.028571 672.914286c14.628571-36.571429 25.6-73.142857 29.257143-113.371429l14.628572 40.228572c10.971429-69.485714 14.628571-142.628571 7.314285-215.771429 18.285714 21.942857 32.914286 43.885714 43.885715 73.142857 0-138.971429-40.228571-226.742857-106.057143-277.942857 21.942857 3.657143 51.2 14.628571 95.085714 51.2-32.914286-65.828571-87.771429-117.028571-146.285714-160.914286 76.8 21.942857 157.257143 58.514286 245.028571 197.485715l-32.914285-87.771429-69.485715-73.142857 58.514286 54.857143 3.657143-10.971429c120.685714 149.942857 106.057143 277.942857 65.828571 402.285714l-208.457143 120.685715z" fill="#F5B044" p-id="8903"></path><path d="M874.057143 577.828571c51.2-76.8 62.171429-171.885714 43.885714-285.257142 76.8 146.285714 76.8 310.857143-29.257143 501.028571l-73.142857 43.885714 58.514286-259.657143z" fill="#FF9D00" p-id="8904"></path><path d="M713.142857 731.428571c36.571429-29.257143 58.514286-87.771429 73.142857-171.885714 21.942857 32.914286 25.6 76.8 18.285715 138.971429 32.914286-40.228571 40.228571-120.685714 47.542857-201.142857 51.2 153.6 21.942857 288.914286-69.485715 369.371428 3.657143-3.657143-47.542857-14.628571-29.257142-40.228571 40.228571-47.542857 51.2-149.942857 40.228571-153.6-36.571429 54.857143-58.514286 65.828571-80.457143 58.514285z" fill="#FF9D00" p-id="8905"></path><path d="M610.742857 830.171429c95.085714-25.6 149.942857-73.142857 179.2-135.314286-3.657143 87.771429-32.914286 157.257143-113.371428 190.171428-47.542857-10.971429-65.828571-29.257143-65.828572-54.857142z" fill="#FF9D00" p-id="8906"></path><path d="M771.657143 914.285714l-25.6 25.6h25.6c-32.914286 14.628571-65.828571 25.6-102.4 25.6 32.914286-25.6 65.828571-40.228571 102.4-51.2z" fill="#10549A" p-id="8907"></path></svg>